<?xml version="1.0" encoding="utf-8"?>
<!-- Generator: Adobe Illustrator 16.0.0, SVG Export Plug-In . SVG Version: 6.00 Build 0)  -->
<!DOCTYPE svg PUBLIC "-//W3C//DTD SVG 1.1//EN" "http://www.w3.org/Graphics/SVG/1.1/DTD/svg11.dtd">
<svg version="1.1" id="Layer_1" xmlns="http://www.w3.org/2000/svg" xmlns:xlink="http://www.w3.org/1999/xlink" x="0px" y="0px"
	 width="72px" height="72px" viewBox="0 0 72 72" enable-background="new 0 0 72 72" xml:space="preserve">
<path fill="#6699CC" d="M71.9,64.789c0,3.982-3.238,7.211-7.236,7.211H7.338c-3.999,0-7.239-3.229-7.239-7.211V7.076
	c0-3.984,3.24-7.213,7.239-7.213h57.326c3.998,0,7.236,3.229,7.236,7.213V64.789z"/>
<path fill="#FFFFFF" d="M30.236,60.16V37.42h-6.013v-8.186h6.013c0,0,0-3.354,0-6.992c0-5.495,3.551-10.54,11.735-10.54
	c3.312,0,5.764,0.318,5.764,0.318l-0.191,7.644c0,0-2.501-0.023-5.227-0.023c-2.951,0-3.424,1.36-3.424,3.617
	c0,1.784,0-3.804,0,5.977h8.885l-0.389,8.187h-8.496V60.16H30.236L30.236,60.16z"/>
</svg>
