<?xml version="1.0" encoding="utf-8"?>
<!-- Generator: Adobe Illustrator 16.0.0, SVG Export Plug-In . SVG Version: 6.00 Build 0)  -->
<!DOCTYPE svg PUBLIC "-//W3C//DTD SVG 1.1//EN" "http://www.w3.org/Graphics/SVG/1.1/DTD/svg11.dtd">
<svg version="1.1" id="Layer_1" xmlns="http://www.w3.org/2000/svg" xmlns:xlink="http://www.w3.org/1999/xlink" x="0px" y="0px"
	 width="72px" height="72px" viewBox="0 0 72 72" enable-background="new 0 0 72 72" xml:space="preserve">
<path fill="#6699CC" d="M71.803,64.788c0,3.983-3.24,7.212-7.238,7.212H7.239C3.24,72,0,68.771,0,64.788V7.074
	C0,3.09,3.24-0.138,7.239-0.138h57.325c3.998,0,7.238,3.228,7.238,7.212V64.788z"/>
<g>
	<path fill="#FFFFFF" d="M23.357,17.5c0,2.649-1.97,4.796-5.211,4.796c-3.05,0-5.02-2.147-5.02-4.796
		c0-2.713,2.033-4.796,5.147-4.796C21.387,12.704,23.293,14.787,23.357,17.5z M13.379,56.939V26.082h9.661v30.857H13.379z"/>
	<path fill="#FFFFFF" d="M28.821,35.926c0-3.848-0.127-7.067-0.254-9.844h8.389l0.444,4.291h0.189
		c1.271-2.02,4.387-4.985,9.598-4.985c6.354,0,11.123,4.229,11.123,13.316v18.235h-9.66V39.839c0-3.976-1.399-6.689-4.896-6.689
		c-2.67,0-4.258,1.829-4.958,3.596c-0.254,0.631-0.316,1.515-0.316,2.396v17.795H28.82L28.821,35.926L28.821,35.926z"/>
</g>
</svg>
