<?xml version="1.0" encoding="utf-8"?>
<!-- Generator: Adobe Illustrator 16.0.0, SVG Export Plug-In . SVG Version: 6.00 Build 0)  -->
<!DOCTYPE svg PUBLIC "-//W3C//DTD SVG 1.1//EN" "http://www.w3.org/Graphics/SVG/1.1/DTD/svg11.dtd">
<svg version="1.1" id="Layer_1" xmlns="http://www.w3.org/2000/svg" xmlns:xlink="http://www.w3.org/1999/xlink" x="0px" y="0px"
	 width="72px" height="72px" viewBox="0 0 72 72" enable-background="new 0 0 72 72" xml:space="preserve">
<path fill="#6699CC" d="M71.902,64.857c0,3.982-3.24,7.213-7.238,7.213H7.337c-3.998,0-7.238-3.229-7.238-7.213V7.144
	c0-3.984,3.24-7.213,7.238-7.213h57.327c3.998,0,7.238,3.229,7.238,7.213V64.857z"/>
<path fill="#FFFFFF" d="M17.764,22.016c0-4.928,3.994-8.936,8.934-8.936c4.927,0,8.934,4.008,8.934,8.936v0.945h9.67
	c4.927,0,8.935,4.007,8.935,8.935c0,4.65-3.547,8.553-8.065,8.999l0.015,0.066c4.521,0.46,8.053,4.389,8.053,9.025
	c0,4.928-4.008,8.935-8.934,8.935H31.638c-8.29,0-13.874-6.412-13.874-14.636V22.016L17.764,22.016z"/>
<path fill="#6699CC" d="M26.705,17.022c2.746,0,4.992,2.246,4.992,4.993v4.887h13.612c2.746,0,4.991,2.247,4.991,4.992
	c0,2.76-2.245,4.993-4.991,4.993H31.697v7.199c0,0.58,0.171,0.908,0.71,0.908h12.901c2.746,0,4.99,2.232,4.99,4.992
	c0,2.746-2.244,4.992-4.99,4.992H32.958c-0.131,0-0.25-0.016-0.368-0.016c-7.331-0.195-10.892-4.834-10.892-11.191
	c0.014-0.066,0.014-0.131,0.014-0.211V22.015C21.713,19.268,23.946,17.022,26.705,17.022L26.705,17.022z"/>
</svg>
